<svg xmlns="http://www.w3.org/2000/svg" fill="#0077b5" viewBox="0 0 201 201" width="40" height="40">
	<style>
		tspan { white-space:pre }
		.shp0 { fill: #000000 } 
	</style>
	<g id="Page 1">
		<path id="Path 1" class="shp0" d="M201,101c0,55.23 -44.77,100 -100,100c-55.23,0 -100,-44.77 -100,-100c0,-55.23 44.77,-100 100,-100c55.23,0 100,44.77 100,100zM77.19,59.16c-0.13,-5.73 -4.13,-10.13 -10.66,-10.13c-6.53,0 -10.79,4.4 -10.79,10.13c0,5.6 4.13,10.12 10.53,10.12c6.8,0 10.92,-4.53 10.92,-10.12zM76.53,77.28h-20.26v65.16h20.26zM150.47,103.93c0,-19.19 -9.99,-28.11 -23.31,-28.11c-10.93,0 -17.46,6.26 -20.12,10.53h-0.4l-0.93,-9.06h-17.59c0.27,5.86 0.53,12.66 0.53,20.79v44.37h20.25v-37.58c0,-1.86 0.14,-3.73 0.67,-5.06c1.47,-3.73 4.8,-7.6 10.39,-7.6c7.33,0 10.26,5.73 10.26,14.12v36.11h20.25z" />
	</g>
</svg>