<?xml version="1.0" encoding="UTF-8" standalone="no"?>
<!DOCTYPE svg PUBLIC "-//W3C//DTD SVG 20010904//EN"
              "http://www.w3.org/TR/2001/REC-SVG-20010904/DTD/svg10.dtd">

<svg xmlns="http://www.w3.org/2000/svg"
     width="5.33333in" height="3in"
     viewBox="0 0 1600 900">
  <path id="Selection"
        fill="none" stroke="black" stroke-width="1"
        d="M 101.00,848.00
           C 101.00,848.00 105.00,848.00 105.00,848.00
             105.00,848.00 104.00,844.86 104.00,844.86
             104.00,844.86 108.00,844.86 108.00,844.86
             109.50,844.98 111.55,844.98 112.98,844.86
             118.43,843.02 118.92,837.32 116.40,834.31
             113.92,831.36 105.36,831.04 102.60,833.74
             100.95,835.35 101.04,837.87 101.00,840.00
             101.00,840.00 101.00,848.00 101.00,848.00 Z
           M 122.00,848.00
           C 122.00,848.00 126.00,848.00 126.00,848.00
             126.00,848.00 126.00,845.00 126.00,845.00
             126.00,845.00 136.00,845.00 136.00,845.00
             136.00,845.00 135.00,848.00 135.00,848.00
             135.00,848.00 140.00,848.00 140.00,848.00
             140.00,844.73 140.45,837.89 138.83,835.19
             136.17,830.87 125.65,830.70 123.02,835.19
             121.55,837.63 122.00,844.89 122.00,848.00 Z
           M 144.00,848.00
           C 144.00,848.00 149.00,848.00 149.00,848.00
             149.00,848.00 149.00,844.00 149.00,844.00
             149.00,844.00 163.00,849.00 163.00,849.00
             163.00,849.00 159.00,843.00 159.00,843.00
             163.00,840.60 164.31,835.95 159.77,833.17
             155.70,830.68 147.60,831.62 145.17,836.06
             143.60,838.93 144.00,844.65 144.00,848.00 Z
           M 167.00,832.00
           C 167.00,832.00 167.00,848.00 167.00,848.00
             167.00,848.00 172.00,848.00 172.00,848.00
             172.00,848.00 172.00,844.00 172.00,844.00
             177.56,848.12 177.67,847.38 184.00,849.00
             181.58,844.61 178.59,842.79 174.00,841.00
             174.00,841.00 184.00,832.00 184.00,832.00
             177.59,832.08 177.33,832.39 172.00,836.00
             172.00,836.00 172.00,832.00 172.00,832.00
             172.00,832.00 167.00,832.00 167.00,832.00 Z
           M 202.00,848.00
           C 202.00,848.00 202.00,844.00 202.00,844.00
             202.00,844.00 190.00,843.00 190.00,843.00
             190.00,843.00 201.00,842.00 201.00,842.00
             201.00,842.00 201.00,838.00 201.00,838.00
             201.00,838.00 190.00,838.00 190.00,838.00
             190.00,838.00 202.00,837.00 202.00,837.00
             202.00,837.00 202.00,832.00 202.00,832.00
             198.60,832.00 190.95,831.51 188.23,833.17
             183.95,835.79 183.95,844.36 188.23,846.98
             190.69,848.48 198.82,848.00 202.00,848.00 Z
           M 210.06,832.74
           C 205.15,835.74 204.48,843.17 208.31,846.40
             210.45,848.20 214.33,848.09 217.00,847.98
             227.25,847.56 224.10,836.33 222.40,834.31
             219.66,831.06 213.69,831.84 210.06,832.74 Z
           M 229.00,848.00
           C 229.00,848.00 233.00,848.00 233.00,848.00
             233.00,848.00 233.00,837.00 233.00,837.00
             233.00,837.00 243.00,837.00 243.00,837.00
             243.00,837.00 243.00,848.00 243.00,848.00
             243.00,848.00 247.00,848.00 247.00,848.00
             247.00,844.89 247.45,837.63 245.98,835.15
             243.39,830.76 232.61,830.76 230.02,835.15
             228.55,837.63 229.00,844.89 229.00,848.00 Z
           M 114.00,840.00
           C 114.00,840.00 105.00,840.00 105.00,840.00
             106.87,834.67 112.14,834.85 114.00,840.00 Z
           M 136.00,840.00
           C 136.00,840.00 126.00,840.00 126.00,840.00
             126.00,840.00 126.00,837.00 126.00,837.00
             130.64,837.00 133.05,836.06 136.00,840.00 Z
           M 158.00,837.00
           C 158.00,837.00 158.00,839.00 158.00,839.00
             158.00,839.00 149.00,839.00 149.00,839.00
             149.00,839.00 149.00,837.00 149.00,837.00
             149.00,837.00 158.00,837.00 158.00,837.00 Z
           M 220.00,837.00
           C 219.74,844.50 217.91,843.97 211.00,844.00
             211.00,844.00 211.00,837.00 211.00,837.00
             211.00,837.00 220.00,837.00 220.00,837.00 Z
           M 171.00,859.00
           C 171.00,859.00 173.00,859.00 173.00,859.00
             173.00,859.00 173.00,854.00 173.00,854.00
             175.71,859.58 176.24,858.55 182.00,859.00
             182.00,859.00 185.00,852.00 185.00,852.00
             185.00,852.00 181.00,852.00 181.00,852.00
             181.00,852.00 181.00,857.00 181.00,857.00
             181.00,857.00 176.00,849.00 176.00,849.00
             170.84,851.65 171.07,853.60 171.00,859.00 Z
           M 126.00,856.00
           C 126.00,856.00 122.00,856.00 122.00,856.00
             123.52,859.65 125.13,859.10 128.00,857.00
             131.39,859.39 133.64,859.47 137.00,857.00
             137.00,857.00 143.00,859.00 143.00,859.00
             143.00,859.00 143.00,852.00 143.00,852.00
             143.00,852.00 139.00,857.00 139.00,857.00
             139.75,852.99 139.78,851.93 136.00,850.00
             136.00,850.00 135.00,857.00 135.00,857.00
             133.23,853.36 133.22,852.44 129.00,853.00
             125.62,848.01 120.74,852.01 126.00,856.00 Z
           M 148.00,852.00
           C 148.00,852.00 145.00,851.00 145.00,851.00
             145.00,851.00 144.00,852.00 144.00,852.00
             144.00,852.00 144.00,859.00 144.00,859.00
             144.00,859.00 146.00,859.00 146.00,859.00
             146.00,859.00 148.00,854.00 148.00,854.00
             148.00,854.00 147.00,859.00 147.00,859.00
             147.00,859.00 149.00,856.00 149.00,856.00
             152.66,859.40 153.36,858.63 158.00,859.00
             158.00,859.00 159.00,854.00 159.00,854.00
             159.00,854.00 160.00,859.00 160.00,859.00
             165.55,858.80 166.51,858.52 168.00,853.00
             165.49,852.65 161.90,852.96 165.00,856.00
             165.00,856.00 157.00,852.00 157.00,852.00
             157.00,852.00 157.00,856.00 157.00,856.00
             154.44,852.34 154.09,852.11 150.00,854.00
             150.00,854.00 151.00,850.00 151.00,850.00
             151.00,850.00 148.00,852.00 148.00,852.00 Z
           M 192.00,856.00
           C 192.00,856.00 187.00,856.00 187.00,856.00
             189.50,859.73 191.77,858.70 196.00,859.00
             196.00,859.00 198.00,854.00 198.00,854.00
             198.00,854.00 197.00,859.00 197.00,859.00
             197.00,859.00 199.00,859.00 199.00,859.00
             199.00,859.00 199.00,855.00 199.00,855.00
             199.00,855.00 200.00,859.00 200.00,859.00
             200.00,859.00 202.00,856.00 202.00,856.00
             202.00,856.00 203.00,859.00 203.00,859.00
             211.68,858.89 208.15,857.63 214.00,854.00
             214.00,854.00 213.00,859.00 213.00,859.00
             213.00,859.00 217.00,852.00 217.00,852.00
             217.00,852.00 216.00,851.00 216.00,851.00
             216.00,851.00 209.00,852.00 209.00,852.00
             209.00,852.00 209.00,857.00 209.00,857.00
             207.76,854.44 205.98,850.26 204.00,855.00
             200.37,851.64 198.66,851.79 194.00,853.00
             191.79,847.70 185.12,851.56 192.00,856.00 Z
           M 228.00,852.00
           C 228.00,852.00 230.00,859.00 230.00,859.00
             230.00,859.00 232.00,859.00 232.00,859.00
             232.00,859.00 234.00,854.00 234.00,854.00
             234.00,854.00 233.00,859.00 233.00,859.00
             233.00,859.00 235.00,859.00 235.00,859.00
             235.00,859.00 235.00,855.00 235.00,855.00
             238.35,859.85 241.62,859.43 247.00,858.00
             247.00,858.00 247.00,852.00 247.00,852.00
             247.00,852.00 236.00,854.00 236.00,854.00
             236.00,854.00 236.00,850.00 236.00,850.00
             236.00,850.00 234.00,852.00 234.00,852.00
             234.00,852.00 230.00,850.00 230.00,850.00
             230.00,850.00 228.00,850.00 228.00,850.00
             228.00,850.00 228.00,852.00 228.00,852.00
             220.43,846.72 217.69,857.30 223.14,858.67
             228.56,860.03 229.00,855.94 228.00,852.00 Z
           M 129.00,854.00
           C 129.00,854.00 128.00,855.00 128.00,855.00
             128.00,855.00 125.00,852.00 125.00,852.00
             125.00,852.00 129.00,854.00 129.00,854.00 Z
           M 149.00,852.00
           C 149.00,852.00 149.00,853.00 149.00,853.00
             149.00,853.00 148.00,852.00 148.00,852.00
             148.00,852.00 149.00,852.00 149.00,852.00 Z
           M 176.00,852.00
           C 176.00,852.00 176.00,853.00 176.00,853.00
             176.00,853.00 175.00,852.00 175.00,852.00
             175.00,852.00 176.00,852.00 176.00,852.00 Z
           M 194.00,857.00
           C 194.00,857.00 190.00,853.00 190.00,853.00
             193.42,852.34 193.49,854.04 194.00,857.00 Z
           M 227.00,857.00
           C 227.00,857.00 222.00,857.00 222.00,857.00
             223.00,851.33 226.00,851.33 227.00,857.00 Z
           M 235.00,852.00
           C 235.00,852.00 235.00,853.00 235.00,853.00
             235.00,853.00 234.00,852.00 234.00,852.00
             234.00,852.00 235.00,852.00 235.00,852.00 Z
           M 201.00,854.00
           C 201.00,854.00 201.00,855.00 201.00,855.00
             201.00,855.00 200.00,854.00 200.00,854.00
             200.00,854.00 201.00,854.00 201.00,854.00 Z
           M 240.00,854.00
           C 240.00,854.00 240.00,855.00 240.00,855.00
             240.00,855.00 239.00,854.00 239.00,854.00
             239.00,854.00 240.00,854.00 240.00,854.00 Z
           M 206.00,856.00
           C 206.00,856.00 206.00,857.00 206.00,857.00
             206.00,857.00 205.00,856.00 205.00,856.00
             205.00,856.00 206.00,856.00 206.00,856.00 Z
           M 244.00,856.00
           C 244.00,856.00 238.00,857.00 238.00,857.00
             238.00,857.00 244.00,856.00 244.00,856.00 Z" />
</svg>
