<?xml version="1.0" encoding="UTF-8" standalone="no"?>
<!DOCTYPE svg PUBLIC "-//W3C//DTD SVG 20010904//EN"
              "http://www.w3.org/TR/2001/REC-SVG-20010904/DTD/svg10.dtd">

<svg xmlns="http://www.w3.org/2000/svg"
     width="5.33333in" height="3in"
     viewBox="0 0 1600 900">
  <path id="Selection"
        fill="none" stroke="black" stroke-width="1"
        d="M 1359.00,820.50
           C 1352.11,821.92 1346.85,824.30 1343.57,831.00
             1336.95,844.51 1347.38,861.61 1363.00,859.50
             1388.63,856.03 1385.10,818.83 1359.00,820.50 Z
           M 1419.00,820.50
           C 1412.11,821.92 1406.85,824.30 1403.57,831.00
             1396.95,844.51 1407.38,861.61 1423.00,859.50
             1448.63,856.03 1445.10,818.83 1419.00,820.50 Z
           M 1479.00,820.50
           C 1472.11,821.92 1466.85,824.30 1463.57,831.00
             1456.95,844.51 1467.38,861.61 1483.00,859.50
             1508.63,856.03 1505.10,818.83 1479.00,820.50 Z
           M 1472.00,834.00
           C 1472.00,834.00 1473.00,829.00 1473.00,829.00
             1477.11,831.43 1476.49,833.22 1472.00,834.00 Z
           M 1366.00,830.00
           C 1366.00,830.00 1366.00,834.00 1366.00,834.00
             1366.00,834.00 1362.00,834.00 1362.00,834.00
             1362.00,834.00 1362.00,837.00 1362.00,837.00
             1362.00,837.00 1366.00,837.00 1366.00,837.00
             1366.00,837.00 1366.00,841.00 1366.00,841.00
             1366.00,841.00 1362.00,841.00 1362.00,841.00
             1362.00,841.00 1362.00,850.00 1362.00,850.00
             1362.00,850.00 1358.00,850.00 1358.00,850.00
             1358.00,850.00 1358.00,841.00 1358.00,841.00
             1358.00,841.00 1355.00,841.00 1355.00,841.00
             1355.00,841.00 1355.00,837.00 1355.00,837.00
             1355.00,837.00 1358.00,837.00 1358.00,837.00
             1358.92,831.37 1360.46,830.45 1366.00,830.00 Z
           M 1431.00,833.00
           C 1428.53,844.56 1424.88,850.66 1412.00,847.00
             1412.00,847.00 1416.00,846.00 1416.00,846.00
             1413.03,840.98 1411.76,838.96 1413.00,833.00
             1413.00,833.00 1421.00,837.00 1421.00,837.00
             1422.92,830.98 1425.66,832.32 1431.00,833.00 Z
           M 101.00,847.00
           C 101.00,847.00 104.00,843.95 104.00,843.95
             104.00,843.95 111.00,843.95 111.00,843.95
             118.59,843.03 117.34,836.55 115.40,834.60
             112.59,831.78 103.54,832.37 101.74,836.23
             100.73,838.38 101.00,844.40 101.00,847.00 Z
           M 122.00,847.00
           C 122.00,847.00 125.00,844.00 125.00,844.00
             137.66,844.00 131.60,844.57 139.00,847.00
             139.00,844.40 139.27,838.38 138.26,836.23
             136.46,832.36 127.42,831.78 124.60,834.60
             122.78,836.42 122.79,843.77 122.00,847.00 Z
           M 145.00,847.00
           C 147.71,845.87 147.45,845.87 148.00,843.00
             148.00,843.00 161.00,847.00 161.00,847.00
             161.00,847.00 158.00,842.00 158.00,842.00
             161.34,840.79 163.18,837.72 160.26,834.74
             157.75,832.18 149.10,832.20 147.02,835.31
             146.02,836.82 145.70,844.11 145.00,847.00 Z
           M 168.00,833.00
           C 168.00,833.00 168.00,847.00 168.00,847.00
             168.00,847.00 171.00,847.00 171.00,847.00
             171.00,847.00 171.00,843.00 171.00,843.00
             171.00,843.00 181.00,847.00 181.00,847.00
             181.00,847.00 173.00,841.00 173.00,841.00
             173.00,841.00 173.00,839.00 173.00,839.00
             173.00,839.00 182.00,834.00 182.00,834.00
             177.24,832.34 174.63,835.15 171.00,838.00
             171.00,838.00 171.00,833.00 171.00,833.00
             171.00,833.00 168.00,833.00 168.00,833.00 Z
           M 201.00,847.00
           C 201.00,847.00 201.00,845.00 201.00,845.00
             195.76,845.00 191.99,845.98 189.00,841.00
             189.00,841.00 201.00,840.00 201.00,840.00
             201.00,840.00 189.00,839.00 189.00,839.00
             194.88,833.20 197.15,838.75 201.00,833.00
             198.02,833.00 191.56,832.59 189.15,834.02
             185.49,836.18 184.80,843.48 188.43,845.98
             190.60,847.47 198.14,847.00 201.00,847.00 Z
           M 210.23,833.74
           C 205.90,836.86 203.94,846.99 215.00,846.99
             216.41,846.99 218.57,846.96 219.85,846.40
             223.58,844.78 224.10,837.30 221.40,834.60
             218.93,832.12 213.25,832.94 210.23,833.74 Z
           M 230.00,847.00
           C 230.00,847.00 232.00,847.00 232.00,847.00
             232.00,844.51 231.72,840.35 233.02,838.23
             235.28,834.53 240.72,834.53 242.98,838.23
             244.28,840.35 244.00,844.51 244.00,847.00
             244.00,847.00 246.00,847.00 246.00,847.00
             246.00,844.26 246.43,837.54 244.98,835.43
             242.70,832.12 233.30,832.12 231.02,835.43
             229.57,837.54 230.00,844.26 230.00,847.00 Z
           M 104.00,840.95
           C 104.11,839.57 104.02,837.93 104.99,836.74
             109.19,831.56 119.54,839.39 110.94,840.95
             110.94,840.95 108.00,840.95 108.00,840.95
             108.00,840.95 104.00,840.95 104.00,840.95 Z
           M 136.00,841.00
           C 136.00,841.00 125.00,841.00 125.00,841.00
             126.33,833.06 135.33,832.57 136.00,841.00 Z
           M 159.00,840.00
           C 159.00,840.00 148.00,840.00 148.00,840.00
             150.11,833.40 157.80,833.06 159.00,840.00 Z
           M 213.13,835.43
           C 215.36,835.16 217.62,834.80 219.40,836.60
             221.56,838.77 221.34,843.56 216.94,844.68
             209.98,846.46 207.31,838.45 213.13,835.43 Z
           M 1476.00,835.00
           C 1476.00,835.00 1476.00,849.00 1476.00,849.00
             1476.00,849.00 1472.00,849.00 1472.00,849.00
             1472.00,849.00 1472.00,835.00 1472.00,835.00
             1472.00,835.00 1476.00,835.00 1476.00,835.00 Z
           M 1491.00,849.00
           C 1484.78,847.91 1486.00,844.41 1486.00,839.00
             1486.00,839.00 1483.00,839.00 1483.00,839.00
             1483.00,839.00 1483.00,849.00 1483.00,849.00
             1483.00,849.00 1478.00,849.00 1478.00,849.00
             1478.00,849.00 1478.00,835.00 1478.00,835.00
             1480.45,835.10 1486.93,834.85 1488.69,836.03
             1491.88,838.15 1491.00,845.51 1491.00,849.00 Z" />
</svg>
