<svg xmlns="http://www.w3.org/2000/svg" fill="#55acee" viewBox="0 0 201 201" width="40" height="40">
	<style>


	</style>
	<g id="Page 1">
		<path id="Path 1" class="shp0" d="M200,100c0,55.23 -44.77,100 -100,100c-55.23,0 -100,-44.77 -100,-100c0,-55.23 44.77,-100 100,-100c55.23,0 100,44.77 100,100zM150.5,71.73c-3.53,1.57 -7.33,2.63 -11.31,3.1c4.06,-2.44 7.19,-6.3 8.66,-10.9c-3.8,2.26 -8.02,3.9 -12.51,4.78c-3.59,-3.83 -8.71,-6.22 -14.37,-6.22c-10.88,0 -19.69,8.82 -19.69,19.69c0,1.54 0.17,3.05 0.51,4.49c-16.37,-0.82 -30.88,-8.66 -40.6,-20.58c-1.7,2.91 -2.67,6.29 -2.67,9.9c0,6.84 3.47,12.86 8.76,16.4c-3.22,-0.1 -6.26,-0.99 -8.92,-2.46c0,0.08 0,0.16 0,0.25c0,9.54 6.79,17.5 15.8,19.31c-1.65,0.45 -3.39,0.69 -5.19,0.69c-1.27,0 -2.5,-0.13 -3.71,-0.35c2.51,7.82 9.78,13.52 18.4,13.67c-6.74,5.29 -15.24,8.43 -24.46,8.43c-1.59,0 -3.16,-0.09 -4.7,-0.28c8.71,5.59 19.07,8.85 30.19,8.85c36.23,0 56.04,-30.01 56.04,-56.04c0,-0.85 -0.01,-1.7 -0.06,-2.55c3.85,-2.78 7.19,-6.25 9.83,-10.19z" />
	</g>
</svg>